<svg width="128" height="128" viewBox="0 0 24 24" fill="#8411f6" xmlns="http://www.w3.org/2000/svg"><path d="M24 11.39v1.218c-1.128.108-1.817.944-2.226 2.268-.407 1.319-.463 2.937-.42 4.186.045 1.3-.968 2.5-2.337 2.5H4.985c-1.37 0-2.383-1.2-2.337-2.5.043-1.249-.013-2.867-.42-4.186-.41-1.324-1.1-2.16-2.228-2.268V11.39c1.128-.108 1.819-.944 2.227-2.268.408-1.319.464-2.937.42-4.186-.045-1.3.968-2.5 2.338-2.5h14.032c1.37 0 2.382 1.2 2.337 2.5-.043 1.249.013 2.867.42 4.186.409 1.324 1.098 2.16 2.226 2.268"/><path d="M11.77 11.24H9.956V8.202h2.152c1.17 0 1.834.522 1.834 1.466 0 1.008-.773 1.572-2.174 1.572zm.324 1.206H9.957v3.348h2.231c1.459 0 2.232-.585 2.232-1.685s-.795-1.663-2.326-1.663z" fill="#00" stroke="#000" stroke-width="1.2"/></svg>