<svg width="128" height="128" viewBox="0 0 32 32" fill="none" xmlns="http://www.w3.org/2000/svg"><circle cx="16" cy="16" r="14" fill="#028CB0"/><path d="M6.455 16c0 3.782 2.2 7.04 5.382 8.589L7.285 12.115A9.5 9.5 0 0 0 6.455 16M16 25.545a9.7 9.7 0 0 0 3.173-.542l-.068-.127-2.936-8.038-2.86 8.317c.846.254 1.752.39 2.691.39m1.311-14.021 3.453 10.264.956-3.182c.406-1.32.72-2.268.72-3.088 0-1.185-.424-1.997-.78-2.623-.49-.796-.939-1.464-.939-2.243 0-.88.66-1.692 1.608-1.692h.119A9.5 9.5 0 0 0 16 6.455a9.54 9.54 0 0 0-7.97 4.299l.608.017c.999 0 2.539-.127 2.539-.127.524-.026.584.727.068.787 0 0-.516.068-1.1.093l3.486 10.34 2.09-6.262-1.49-4.078a17 17 0 0 1-.998-.085c-.516-.034-.457-.82.06-.795 0 0 1.573.127 2.512.127.999 0 2.539-.127 2.539-.127.516-.026.584.727.067.787 0 0-.516.059-1.1.093m3.487 12.726a9.545 9.545 0 0 0 3.579-12.828 9 9 0 0 1-.66 4.4zM16 27a11 11 0 1 1 0-22 11 11 0 0 1 0 22" fill="#fff"/></svg>