<svg width="128" height="128" viewBox="0 0 32 32" fill="none" xmlns="http://www.w3.org/2000/svg"><path d="M2 12.133c0-3.547 0-5.32.69-6.675A6.33 6.33 0 0 1 5.458 2.69C6.813 2 8.586 2 12.133 2h7.734c3.547 0 5.32 0 6.675.69a6.33 6.33 0 0 1 2.768 2.768c.69 1.355.69 3.128.69 6.675v7.734c0 3.547 0 5.32-.69 6.675a6.33 6.33 0 0 1-2.768 2.768c-1.355.69-3.128.69-6.675.69h-7.734c-3.547 0-5.32 0-6.675-.69a6.33 6.33 0 0 1-2.768-2.768C2 25.187 2 23.414 2 19.867z" fill="#470137"/><path d="m16.647 10.234-3.494 5.914 3.738 6.28c.077.143 0 .174-.113.174h-2.667c-.188 0-.32-.006-.395-.135q-.375-.75-.751-1.493-.376-.741-.798-1.512a88 88 0 0 1-.836-1.56c-.25.513-.53 1.027-.798 1.54q-.405.771-.799 1.532a69 69 0 0 1-.807 1.512c-.05.116-.138.128-.263.128H6.09c-.1 0-.113-.076-.056-.166l3.625-6.107-3.531-6.127c-.064-.087-.01-.18.094-.173H8.87a.3.3 0 0 1 .282.135q.338.771.751 1.541t.836 1.522c.282.501.56 1.008.798 1.522q.375-.79.761-1.541.386-.752.789-1.512.404-.762.78-1.513c.033-.11.112-.165.225-.154h2.46c.095 0 .133.128.095.193m5.39 12.619c-1.656.025-3.392-.657-4.264-2.168q-.638-1.088-.638-2.726a5.13 5.13 0 0 1 .638-2.524c1.098-1.962 3.31-2.697 5.41-2.504V9.136q0-.135.113-.135h2.366c.065-.01.122.05.113.116v11.385c0 .47.047.938.075 1.407a.2.2 0 0 1-.113.192 9.5 9.5 0 0 1-3.7.752m1.146-2.39v-5.259c-1.716-.476-3.381.83-3.381 2.64-.04 1.87 1.572 3.162 3.38 2.62" fill="#FF61F6"/></svg>